<svg width="384" height="184" viewBox="0 0 384 184" fill="none" xmlns="http://www.w3.org/2000/svg">
<path d="M255.875 96.7178C255.875 90.8731 251.135 86.1349 245.289 86.1349C239.443 86.1349 234.703 90.8731 234.703 96.7178C234.703 102.562 239.443 107.301 245.289 107.301C248.797 107.301 251.641 110.144 251.641 113.65C251.641 117.157 248.797 120 245.289 120C232.427 120 222 109.576 222 96.7178C222 83.8592 232.427 73.4355 245.289 73.4355C258.151 73.4355 268.578 83.8592 268.578 96.7178C268.578 100.225 265.734 103.067 262.227 103.067C258.719 103.067 255.875 100.225 255.875 96.7178Z" fill="#E53855"/>
<path fill-rule="evenodd" clip-rule="evenodd" d="M307.586 191.834C301.74 191.834 297 196.573 297 202.417C297 208.262 301.74 213 307.586 213C313.432 213 318.172 208.262 318.172 202.417C318.172 196.573 313.432 191.834 307.586 191.834ZM239.586 42.8344C233.74 42.8344 229 47.5725 229 53.4172C229 59.2623 233.74 64 239.586 64C245.432 64 250.172 59.2623 250.172 53.4172C250.172 47.5725 245.432 42.8344 239.586 42.8344Z" fill="#FFC735"/>
<path d="M285.99 31.2232C280.143 31.2232 275.404 26.485 275.404 20.6403C275.404 14.7956 280.143 10.0575 285.99 10.0575C291.836 10.0575 296.576 14.7956 296.576 20.6403C296.576 24.1471 299.42 26.9901 302.927 26.9901C306.435 26.9901 309.279 24.1471 309.279 20.6403C309.279 7.78173 298.852 -2.64197 285.99 -2.64197C273.127 -2.64197 262.701 7.78173 262.701 20.6403C262.701 33.4989 273.127 43.9226 285.99 43.9226C289.498 43.9226 292.341 41.0797 292.341 37.5729C292.341 34.0662 289.498 31.2232 285.99 31.2232Z" fill="#44AB96"/>
<path fill-rule="evenodd" clip-rule="evenodd" d="M231.452 -47.5227C244.306 -47.5227 254.726 -37.0975 254.726 -24.237V18.1004C254.726 30.9609 244.306 41.386 231.452 41.386C218.598 41.386 208.178 30.9609 208.178 18.1004V4.55244H194.848C181.994 4.55244 171.574 -5.87274 171.574 -18.7332V-61.0706C171.574 -66.9174 166.837 -71.655 160.994 -71.655H141.529C135.686 -71.655 130.949 -66.9174 130.949 -61.0706C130.949 -57.5651 128.107 -54.72 124.602 -54.72C121.096 -54.72 118.254 -57.5651 118.254 -61.0706C118.254 -73.9328 128.675 -84.3563 141.529 -84.3563H160.994C167.664 -84.3563 173.678 -81.5493 177.921 -77.053C182.165 -81.5493 188.179 -84.3563 194.848 -84.3563H213.891C217.396 -84.3563 220.238 -81.5112 220.238 -78.0056C220.238 -74.5001 217.396 -71.655 213.891 -71.655H194.848C189.005 -71.655 184.269 -66.9174 184.269 -61.0706V-18.7332C184.269 -12.8876 189.005 -8.1488 194.848 -8.1488H208.178V-24.237C208.178 -37.0975 218.598 -47.5227 231.452 -47.5227ZM220.873 18.1005C220.873 23.946 225.609 28.6849 231.452 28.6849C237.295 28.6849 242.031 23.946 242.031 18.1005V-24.2369C242.031 -30.0825 237.295 -34.8213 231.452 -34.8213C225.609 -34.8213 220.873 -30.0825 220.873 -24.2369V18.1005Z" fill="#8950FC"/>
<path fill-rule="evenodd" clip-rule="evenodd" d="M290.234 181.435C290.234 162.734 275.071 147.575 256.365 147.575C252.858 147.575 250.014 144.732 250.014 141.226C250.014 137.72 252.858 134.877 256.365 134.877C282.085 134.877 302.936 155.722 302.936 181.435C302.936 184.941 300.092 187.783 296.585 187.783C293.078 187.783 290.234 184.941 290.234 181.435Z" fill="#44AB96"/>
<path fill-rule="evenodd" clip-rule="evenodd" d="M303.298 43.1979C306.801 43.1979 309.641 40.3586 309.641 36.8564C309.641 33.3542 306.801 30.5149 303.298 30.5149C299.795 30.5149 296.955 33.3542 296.955 36.8564C296.955 40.3586 299.795 43.1979 303.298 43.1979Z" fill="#FD6234"/>
<path fill-rule="evenodd" clip-rule="evenodd" d="M303.298 60.0481C306.801 60.0481 309.641 57.2088 309.641 53.7066C309.641 50.2044 306.801 47.3651 303.298 47.3651C299.795 47.3651 296.955 50.2044 296.955 53.7066C296.955 57.2088 299.795 60.0481 303.298 60.0481Z" fill="#FD6234"/>
<path fill-rule="evenodd" clip-rule="evenodd" d="M312.722 171.386C312.722 158.528 323.135 148.104 335.981 148.104H378.27C391.115 148.104 401.529 158.528 401.529 171.386C401.529 184.245 391.115 194.669 378.27 194.669H335.981C323.135 194.669 312.722 184.245 312.722 171.386ZM335.981 160.804C330.142 160.804 325.409 165.542 325.409 171.386C325.409 177.231 330.142 181.969 335.981 181.969H378.27C384.109 181.969 388.842 177.231 388.842 171.386C388.842 165.542 384.109 160.804 378.27 160.804H335.981Z" fill="#44AB96"/>
<path fill-rule="evenodd" clip-rule="evenodd" d="M401.166 119.296C401.166 115.793 398.322 112.954 394.814 112.954C388.966 112.954 384.226 108.222 384.226 102.385V60.1085C384.226 54.2713 388.966 49.5393 394.814 49.5393C398.322 49.5393 401.166 46.7 401.166 43.1979C401.166 39.6957 398.322 36.8564 394.814 36.8564C388.139 36.8564 382.12 39.6589 377.873 44.1495C373.626 39.6589 367.608 36.8564 360.933 36.8564H341.452C328.588 36.8564 318.159 47.2665 318.159 60.1085C318.159 63.6106 321.003 66.4499 324.512 66.4499C328.02 66.4499 330.864 63.6106 330.864 60.1085C330.864 54.2713 335.605 49.5393 341.452 49.5393H360.933C366.781 49.5393 371.521 54.2713 371.521 60.1085V102.385C371.521 102.385 371.521 102.385 371.521 102.385C371.521 115.226 381.949 125.637 394.814 125.637C398.322 125.637 401.166 122.798 401.166 119.296Z" fill="#44AB96"/>
<path fill-rule="evenodd" clip-rule="evenodd" d="M394.732 36.8399C400.579 36.8399 405.318 32.1018 405.318 26.2571C405.318 20.4124 400.579 15.6742 394.732 15.6742C388.886 15.6742 384.146 20.4124 384.146 26.2571C384.146 29.7638 381.303 32.6068 377.795 32.6068C374.287 32.6068 371.443 29.7638 371.443 26.2571C371.443 13.3985 381.87 2.97476 394.732 2.97476C407.595 2.97476 418.021 13.3985 418.021 26.2571C418.021 39.1157 407.595 49.5394 394.732 49.5394C391.225 49.5394 388.381 46.6964 388.381 43.1896C388.381 39.6829 391.225 36.8399 394.732 36.8399Z" fill="#463C74"/>
<path fill-rule="evenodd" clip-rule="evenodd" d="M342.717 90.8659C336.871 90.8659 332.131 95.6041 332.131 101.449C332.131 107.293 336.871 112.032 342.717 112.032C348.564 112.032 353.303 107.293 353.303 101.449C353.303 97.9421 356.147 95.0991 359.655 95.0991C363.162 95.0991 366.006 97.9421 366.006 101.449C366.006 114.307 355.58 124.731 342.717 124.731C329.855 124.731 319.428 114.307 319.428 101.449C319.428 88.5902 329.855 78.1665 342.717 78.1665C346.225 78.1665 349.069 81.0095 349.069 84.5162C349.069 88.023 346.225 90.8659 342.717 90.8659Z" fill="#E53855"/>
<path fill-rule="evenodd" clip-rule="evenodd" d="M377.043 177.637C369.235 177.637 362.957 183.911 362.957 191.588C362.957 199.265 369.235 205.54 377.043 205.54C381.357 205.54 385.205 203.628 387.795 200.602C390.075 197.937 394.089 197.621 396.76 199.894C399.432 202.168 399.749 206.171 397.469 208.835C392.559 214.573 385.223 218.222 377.043 218.222C362.268 218.222 350.239 206.326 350.239 191.588C350.239 176.85 362.268 164.954 377.043 164.954C380.555 164.954 383.402 167.793 383.402 171.296C383.402 174.798 380.555 177.637 377.043 177.637Z" fill="#FD6234"/>
<path fill-rule="evenodd" clip-rule="evenodd" d="M287.712 59.6972C287.712 67.7656 294.408 74.5204 302.936 74.5204C311.463 74.5204 318.159 67.7656 318.159 59.6972C318.159 56.1887 321 53.3444 324.503 53.3444C328.006 53.3444 330.846 56.1887 330.846 59.6972C330.846 75.0188 318.231 87.226 302.936 87.226C287.64 87.226 275.025 75.0188 275.025 59.6972C275.025 56.1887 277.865 53.3444 281.368 53.3444C284.871 53.3444 287.712 56.1887 287.712 59.6972Z" fill="#FFB017"/>
<path fill-rule="evenodd" clip-rule="evenodd" d="M366.03 101.544C366.03 117.667 379.118 130.736 395.263 130.736C408.132 130.736 418.565 141.154 418.565 154.005C418.565 166.857 408.132 177.275 395.263 177.275C391.753 177.275 388.908 174.433 388.908 170.928C388.908 167.424 391.753 164.582 395.263 164.582C401.113 164.582 405.855 159.847 405.855 154.005C405.855 148.164 401.113 143.429 395.263 143.429C372.098 143.429 353.319 124.676 353.319 101.544C353.319 98.0392 356.165 95.1978 359.674 95.1978C363.184 95.1978 366.03 98.0392 366.03 101.544Z" fill="#FFB017"/>
<path d="M312.722 170.027C312.722 143.41 291.138 121.832 264.513 121.832C261.01 121.832 258.17 118.993 258.17 115.491C258.17 111.988 261.01 109.149 264.513 109.149C298.145 109.149 325.409 136.405 325.409 170.027C325.409 173.53 322.569 176.369 319.066 176.369C315.563 176.369 312.722 173.53 312.722 170.027Z" fill="#8950FC"/>
<path d="M99.7937 -16.9427C99.7937 5.75122 118.196 24.148 140.896 24.148C144.407 24.148 147.252 26.993 147.252 30.5022C147.252 34.0114 144.407 36.8564 140.896 36.8564C111.175 36.8564 87.0815 12.7697 87.0815 -16.9427C87.0815 -20.4519 89.9272 -23.2969 93.4376 -23.2969C96.948 -23.2969 99.7937 -20.4519 99.7937 -16.9427Z" fill="#E53855"/>
<path fill-rule="evenodd" clip-rule="evenodd" d="M390.111 -5.90311C373.996 -5.90311 360.932 7.15695 360.932 23.2677C360.932 26.7699 358.092 29.6092 354.588 29.6092C351.085 29.6092 348.245 26.7699 348.245 23.2677C348.245 0.152582 366.989 -18.5861 390.111 -18.5861C393.614 -18.5861 396.454 -15.7468 396.454 -12.2446C396.454 -8.7424 393.614 -5.90311 390.111 -5.90311Z" fill="#FD6234"/>
<path fill-rule="evenodd" clip-rule="evenodd" d="M359.663 95.0168C363.166 95.0168 366.006 97.8561 366.006 101.358C366.006 104.86 363.166 107.7 359.663 107.7C356.159 107.7 353.319 104.86 353.319 101.358C353.319 97.8561 356.159 95.0168 359.663 95.0168Z" fill="#FD6234"/>
<path fill-rule="evenodd" clip-rule="evenodd" d="M298.343 96.3171C301.847 96.3171 304.687 99.1564 304.687 102.659C304.687 106.161 301.847 109 298.343 109C294.84 109 292 106.161 292 102.659C292 99.1564 294.84 96.3171 298.343 96.3171Z" fill="#FD6234"/>
<path fill-rule="evenodd" clip-rule="evenodd" d="M324.503 53.3443C328.006 53.3443 330.846 56.1836 330.846 59.6857C330.846 63.1879 328.006 66.0272 324.503 66.0272C321 66.0272 318.16 63.1879 318.16 59.6857C318.16 56.1836 321 53.3443 324.503 53.3443Z" fill="#FD6234"/>
<path fill-rule="evenodd" clip-rule="evenodd" d="M354.343 61.3171C357.847 61.3171 360.687 64.1564 360.687 67.6586C360.687 71.1607 357.847 74 354.343 74C350.84 74 348 71.1607 348 67.6586C348 64.1564 350.84 61.3171 354.343 61.3171Z" fill="#44AB96"/>
<path fill-rule="evenodd" clip-rule="evenodd" d="M319.065 164.954C322.569 164.954 325.409 167.793 325.409 171.296C325.409 174.798 322.569 177.637 319.065 177.637C315.562 177.637 312.722 174.798 312.722 171.296C312.722 167.793 315.562 164.954 319.065 164.954Z" fill="#FD6234"/>
<path fill-rule="evenodd" clip-rule="evenodd" d="M328.309 18.1944C328.309 -4.22022 310.133 -22.3911 287.711 -22.3911C284.208 -22.3911 281.368 -25.2304 281.368 -28.7326C281.368 -32.2347 284.208 -35.074 287.711 -35.074C317.139 -35.074 340.995 -11.225 340.995 18.1944C340.995 21.6965 338.155 24.5358 334.652 24.5358C331.149 24.5358 328.309 21.6965 328.309 18.1944Z" fill="#B4D51E"/>
<path fill-rule="evenodd" clip-rule="evenodd" d="M140.818 -27.4478C134.972 -27.4478 130.232 -22.7097 130.232 -16.865C130.232 -11.0203 134.972 -6.28217 140.818 -6.28217C146.665 -6.28217 151.404 -11.0203 151.404 -16.865C151.404 -20.3717 154.248 -23.2147 157.756 -23.2147C161.264 -23.2147 164.107 -20.3717 164.107 -16.865C164.107 -4.00643 153.681 6.41724 140.818 6.41724C127.956 6.41724 117.529 -4.00643 117.529 -16.865C117.529 -29.7236 127.956 -40.1472 140.818 -40.1472C144.326 -40.1472 147.17 -37.3026 147.17 -33.7975C147.17 -30.2908 144.326 -27.4478 140.818 -27.4478Z" fill="#463C74"/>
<path fill-rule="evenodd" clip-rule="evenodd" d="M220.007 72.6585C220.007 69.1563 217.163 66.3171 213.654 66.3171C207.807 66.3171 203.067 61.5851 203.067 55.7479V13.4715C203.067 7.63434 207.807 2.90234 213.654 2.90234C217.163 2.90234 220.007 0.0630493 220.007 -3.43913C220.007 -6.94131 217.163 -9.78061 213.654 -9.78061C206.98 -9.78061 200.961 -6.9781 196.714 -2.4875C192.467 -6.9781 186.448 -9.78061 179.774 -9.78061H160.293C147.428 -9.78061 137 0.629555 137 13.4715C137 16.9736 139.844 19.8129 143.353 19.8129C146.861 19.8129 149.705 16.9736 149.705 13.4715C149.705 7.63434 154.445 2.90234 160.293 2.90234H179.774C185.621 2.90234 190.362 7.63434 190.362 13.4715V55.7475C190.362 55.7479 190.362 55.7475 190.362 55.7475C190.362 68.5894 200.79 79 213.654 79C217.163 79 220.007 76.1607 220.007 72.6585Z" fill="#44AB96"/>
<path fill-rule="evenodd" clip-rule="evenodd" d="M168.586 16C162.74 16 158 20.7381 158 26.5828C158 32.4279 162.74 37.1656 168.586 37.1656C174.432 37.1656 179.172 32.4279 179.172 26.5828C179.172 20.7381 174.432 16 168.586 16Z" fill="#E5E0D5"/>
</svg>
